<svg xmlns="http://www.w3.org/2000/svg" viewBox="0 -0.5 32 32" shape-rendering="crispEdges">
<metadata>Made with Pixels to Svg https://codepen.io/shshaw/pen/XbxvNj</metadata>
<path stroke="#be8fd0" d="M3 0h4M9 0h4M0 1h7M9 1h5M0 2h7M9 2h5M16 2h3M0 3h7M9 3h4M15 3h5M0 4h6M8 4h5M15 4h7M0 5h6M8 5h5M15 5h8M1 6h5M8 6h4M14 6h10M1 7h5M8 7h4M14 7h9M1 8h5M8 8h4M14 8h8M25 8h1M1 9h5M8 9h4M14 9h7M24 9h3M1 10h5M8 10h3M13 10h7M23 10h5M1 11h4M7 11h4M13 11h6M22 11h6M1 12h4M7 12h4M13 12h5M21 12h8M1 13h4M7 13h3M12 13h5M20 13h10M1 14h4M7 14h3M12 14h4M19 14h11M12 15h3M18 15h12M1 16h9M17 16h12M0 17h12M16 17h10M0 18h13M16 18h6M29 18h2M0 19h14M16 19h3M26 19h6M0 20h4M9 20h6M22 20h10M0 21h4M11 21h4M19 21h13M0 22h4M11 22h5M17 22h15M0 23h4M12 23h4M17 23h11M0 24h4M12 24h4M17 24h4M0 25h4M12 25h4M28 25h4M0 26h16M21 26h11M0 27h16M17 27h15M0 28h16M17 28h15M0 29h4M12 29h4M17 29h14M0 30h4M12 30h4M17 30h14M1 31h3M12 31h3M26 31h5" />
</svg>