<svg xmlns="http://www.w3.org/2000/svg" viewBox="0 -0.5 100 32" shape-rendering="crispEdges">
<metadata>Made with Pixels to Svg https://codepen.io/shshaw/pen/XbxvNj</metadata>
<path stroke="#be8fd0" d="M71 0h4M77 0h4M68 1h7M77 1h5M68 2h7M77 2h5M84 2h3M68 3h7M77 3h4M83 3h5M68 4h6M76 4h5M83 4h7M68 5h6M76 5h5M83 5h8M69 6h5M76 6h4M82 6h10M69 7h5M76 7h4M82 7h9M69 8h5M76 8h4M82 8h8M93 8h1M69 9h5M76 9h4M82 9h7M92 9h3M69 10h5M76 10h3M81 10h7M91 10h5M69 11h4M75 11h4M81 11h6M90 11h6M69 12h4M75 12h4M81 12h5M89 12h8M69 13h4M75 13h3M80 13h5M88 13h10M69 14h4M75 14h3M80 14h4M87 14h11M80 15h3M86 15h12M1 16h9M18 16h14M35 16h14M52 16h14M69 16h9M85 16h12M0 17h12M17 17h16M34 17h16M51 17h16M68 17h12M84 17h10M0 18h13M17 18h16M34 18h16M51 18h16M68 18h13M84 18h6M97 18h2M0 19h14M17 19h16M34 19h16M51 19h16M68 19h14M84 19h3M94 19h6M0 20h4M9 20h6M17 20h5M40 20h4M51 20h4M68 20h4M77 20h6M90 20h10M0 21h4M11 21h4M17 21h4M40 21h4M51 21h4M68 21h4M79 21h4M87 21h13M0 22h4M11 22h5M17 22h16M40 22h4M51 22h15M68 22h4M79 22h5M85 22h15M0 23h4M12 23h4M17 23h16M40 23h4M51 23h16M68 23h4M80 23h4M85 23h11M0 24h4M12 24h4M17 24h16M40 24h4M51 24h16M68 24h4M80 24h4M85 24h4M0 25h4M12 25h4M17 25h16M40 25h4M51 25h15M68 25h4M79 25h4M96 25h4M0 26h16M29 26h4M40 26h4M51 26h4M68 26h15M89 26h11M0 27h16M28 27h5M40 27h4M51 27h4M68 27h15M85 27h15M0 28h16M17 28h16M40 28h4M51 28h15M68 28h15M85 28h15M0 29h4M12 29h4M17 29h16M40 29h4M51 29h16M68 29h4M80 29h4M85 29h14M0 30h4M12 30h4M17 30h16M40 30h4M51 30h16M68 30h4M80 30h4M85 30h14M1 31h3M12 31h3M18 31h14M41 31h2M52 31h15M69 31h3M81 31h3M94 31h5" />
</svg>